<svg width="1139" height="1173" viewBox="0 0 1139 1173" fill="none" xmlns="http://www.w3.org/2000/svg">
<path d="M908.222 749.783C907.309 750.998 905.798 751.764 904.279 751.808C483.641 764.083 445.783 1065.37 304.133 958.183C136.168 831.08 188.365 479.129 333.256 287.656C453.288 129.035 686.756 103.484 854.72 230.587C1022.21 357.328 1080.29 521.04 908.222 749.783Z" fill="#34A3E1" fill-opacity="0.4"/>
<path d="M908.222 749.783C907.309 750.998 905.798 751.764 904.279 751.808C483.641 764.083 445.783 1065.37 304.133 958.183C136.168 831.08 188.365 479.129 333.256 287.656C453.288 129.035 686.756 103.484 854.72 230.587C1022.21 357.328 1080.29 521.04 908.222 749.783Z" fill="url(#paint0_linear)"/>
<defs>
<linearGradient id="paint0_linear" x1="844.583" y1="222.915" x2="293.995" y2="950.511" gradientUnits="userSpaceOnUse">
<stop stop-color="#FFB1A0"/>
<stop offset="1" stop-color="white" stop-opacity="0"/>
</linearGradient>
</defs>
</svg>
