<svg width="755" height="808" viewBox="0 0 755 808" fill="none" xmlns="http://www.w3.org/2000/svg">
<path d="M582.962 237.434C583.667 238.78 583.709 240.47 583.097 241.861C464.352 511.854 643.596 626.774 532.901 684.165C401.534 752.274 194.105 612.808 116.463 463.055C52.1422 338.995 106.495 183.211 237.862 115.102C368.699 47.2675 489.939 59.7983 582.962 237.434Z" fill="#34A3E1" fill-opacity="0.4"/>
<path d="M582.962 237.434C583.667 238.78 583.709 240.47 583.097 241.861C464.352 511.854 643.596 626.774 532.901 684.165C401.534 752.274 194.105 612.808 116.463 463.055C52.1422 338.995 106.495 183.211 237.862 115.102C368.699 47.2675 489.939 59.7983 582.962 237.434Z" fill="url(#paint0_linear)"/>
<defs>
<linearGradient id="paint0_linear" x1="229.933" y1="119.212" x2="524.973" y2="688.276" gradientUnits="userSpaceOnUse">
<stop stop-color="#FFB1A0"/>
<stop offset="1" stop-color="white" stop-opacity="0"/>
</linearGradient>
</defs>
</svg>
